<svg xmlns="http://www.w3.org/2000/svg" viewBox="0 0 64 64" width="64" height="64">
  <defs>
    <linearGradient id="bg" x1="0" y1="0" x2="64" y2="64" gradientUnits="userSpaceOnUse">
      <stop offset="0%" stop-color="#7C3AED"/>
      <stop offset="100%" stop-color="#4F46E5"/>
    </linearGradient>
  </defs>

  <g transform="translate(0, 3.5)">
    <!-- Chat bubble body — outline -->
    <rect x="6" y="3" width="52" height="44" rx="12"
      fill="none" stroke="url(#bg)" stroke-width="5"/>

    <!-- Tail — filled triangle -->
    <polygon points="13,47 24,47 15,57" fill="url(#bg)"/>

    <!-- AI sparkle -->
    <g fill="url(#bg)">
      <!-- Main 4-point star -->
      <path d="M32 16 C33 22, 36 25, 42 26 C36 27, 33 30, 32 36 C31 30, 28 27, 22 26 C28 25, 31 22, 32 16Z"/>
      <!-- Small accent sparkle -->
      <path d="M44 14 C44.5 16, 45.5 17, 47.5 17.5 C45.5 18, 44.5 19, 44 21 C43.5 19, 42.5 18, 40.5 17.5 C42.5 17, 43.5 16, 44 14Z"/>
    </g>
  </g>
</svg>
